<svg width="350" height="54" viewBox="0 0 350 54" fill="none" xmlns="http://www.w3.org/2000/svg">
<path d="M20.3505 42.7145L11.3638 29.4384V42.7145H0V0H11.3638V23.0312L20.3505 10.3323H33.9755L21.1622 26.61L34.2074 42.7145H20.3505Z" fill="#2B00A6"/>
<path d="M52.6713 43.1185C49.4245 43.1185 46.5062 42.4451 43.9165 41.0983C41.3655 39.7514 39.3555 37.8273 37.8867 35.326C36.4179 32.8247 35.6836 29.8809 35.6836 26.4945C35.6836 23.1466 36.4179 20.222 37.8867 17.7207C39.3942 15.2194 41.4234 13.2954 43.9745 11.9485C46.5642 10.6017 49.4825 9.92823 52.7293 9.92823C55.9761 9.92823 58.875 10.6017 61.4261 11.9485C64.0158 13.2954 66.045 15.2194 67.5138 17.7207C69.0212 20.222 69.775 23.1466 69.775 26.4945C69.775 29.8424 69.0212 32.7863 67.5138 35.326C66.045 37.8273 64.0158 39.7514 61.4261 41.0983C58.8363 42.4451 55.9181 43.1185 52.6713 43.1185ZM52.6713 33.3058C54.256 33.3058 55.5702 32.7285 56.6138 31.5741C57.6961 30.3812 58.2372 28.688 58.2372 26.4945C58.2372 24.3011 57.6961 22.6271 56.6138 21.4727C55.5702 20.3182 54.2754 19.741 52.7293 19.741C51.1832 19.741 49.8883 20.3182 48.8447 21.4727C47.8011 22.6271 47.2793 24.3011 47.2793 26.4945C47.2793 28.7265 47.7818 30.4196 48.7867 31.5741C49.7917 32.7285 51.0865 33.3058 52.6713 33.3058Z" fill="#2B00A6"/>
<path d="M116.897 10.0437C120.994 10.0437 124.202 11.2751 126.521 13.7379C128.879 16.2007 130.058 19.5679 130.058 23.8393V42.7145H118.694V25.3401C118.694 23.6084 118.211 22.2616 117.244 21.2995C116.278 20.3375 114.964 19.8565 113.302 19.8565C111.64 19.8565 110.326 20.3375 109.359 21.2995C108.393 22.2616 107.91 23.6084 107.91 25.3401V42.7145H96.5461V25.3401C96.5461 23.6084 96.063 22.2616 95.0967 21.2995C94.169 20.3375 92.8741 19.8565 91.2121 19.8565C89.5114 19.8565 88.1779 20.3375 87.2116 21.2995C86.2453 22.2616 85.7621 23.6084 85.7621 25.3401V42.7145H74.3983V10.3323H85.7621V14.6037C86.7671 13.2184 88.0619 12.1217 89.6467 11.3136C91.2701 10.467 93.1254 10.0437 95.2126 10.0437C97.6091 10.0437 99.735 10.5632 101.59 11.6022C103.484 12.6412 104.972 14.1035 106.055 15.9891C107.214 14.2189 108.741 12.7951 110.635 11.7176C112.529 10.6017 114.616 10.0437 116.897 10.0437Z" fill="#2B00A6"/>
<path d="M202.516 10.3323V42.7145H191.094V38.0967C190.128 39.559 188.794 40.7519 187.094 41.6755C185.393 42.5606 183.441 43.0031 181.238 43.0031C177.45 43.0031 174.454 41.7717 172.251 39.3089C170.087 36.8076 169.004 33.4212 169.004 29.1498V10.3323H180.31V27.7067C180.31 29.5538 180.793 31.0161 181.76 32.0936C182.765 33.1326 184.079 33.6521 185.702 33.6521C187.364 33.6521 188.678 33.1326 189.645 32.0936C190.611 31.0161 191.094 29.5538 191.094 27.7067V10.3323H202.516Z" fill="#2B00A6"/>
<path d="M230.262 10.0437C234.011 10.0437 236.987 11.2943 239.19 13.7956C241.393 16.2584 242.495 19.6063 242.495 23.8393V42.7145H231.131V25.3401C231.131 23.493 230.648 22.0499 229.682 21.0109C228.715 19.9334 227.421 19.3947 225.797 19.3947C224.096 19.3947 222.763 19.9334 221.797 21.0109C220.83 22.0499 220.347 23.493 220.347 25.3401V42.7145H208.983V10.3323H220.347V14.9501C221.352 13.4878 222.705 12.3141 224.406 11.429C226.106 10.5055 228.058 10.0437 230.262 10.0437Z" fill="#2B00A6"/>
<path d="M282.01 10.3323V42.7145H270.588V38.0967C269.622 39.559 268.289 40.7519 266.588 41.6755C264.887 42.5606 262.935 43.0031 260.732 43.0031C256.944 43.0031 253.948 41.7717 251.745 39.3089C249.581 36.8076 248.499 33.4212 248.499 29.1498V10.3323H259.804V27.7067C259.804 29.5538 260.287 31.0161 261.254 32.0936C262.259 33.1326 263.573 33.6521 265.196 33.6521C266.858 33.6521 268.173 33.1326 269.139 32.0936C270.105 31.0161 270.588 29.5538 270.588 27.7067V10.3323H282.01Z" fill="#2B00A6"/>
<path d="M297.711 17.6703C298.523 16.251 299.671 15.1511 301.154 14.3704C302.637 13.5543 304.385 13.1463 306.397 13.1463C308.763 13.1463 310.899 13.7672 312.805 15.0091C314.747 16.251 316.265 18.0251 317.36 20.3315C318.49 22.6379 319.055 25.3345 319.055 28.4215C319.055 31.5085 318.49 34.2229 317.36 36.5648C316.265 38.8711 314.747 40.6453 312.805 41.8872C310.899 43.1291 308.763 43.75 306.397 43.75C304.385 43.75 302.637 43.3597 301.154 42.5791C299.671 41.763 298.523 40.6453 297.711 39.226V43.3774H287.331V3.99179H297.711V17.6703ZM308.515 28.4215C308.515 26.47 307.986 24.962 306.927 23.8975C305.903 22.7975 304.632 22.2476 303.113 22.2476C301.595 22.2476 300.307 22.7975 299.247 23.8975C298.223 24.9975 297.711 26.5055 297.711 28.4215C297.711 30.3731 298.223 31.8988 299.247 32.9988C300.307 34.0987 301.595 34.6487 303.113 34.6487C304.632 34.6487 305.903 34.0987 306.927 32.9988C307.986 31.8633 308.515 30.3376 308.515 28.4215Z" fill="#3A2E2E"/>
<path d="M328.571 10.7512C326.735 10.7512 325.252 10.2545 324.122 9.26095C323.028 8.23196 322.481 6.95458 322.481 5.42883C322.481 3.8676 323.028 2.57249 324.122 1.54349C325.252 0.514498 326.735 0 328.571 0C330.372 0 331.819 0.514498 332.914 1.54349C334.044 2.57249 334.609 3.8676 334.609 5.42883C334.609 6.95458 334.044 8.23196 332.914 9.26095C331.819 10.2545 330.372 10.7512 328.571 10.7512ZM333.708 13.5189V43.3774H323.328V13.5189H333.708Z" fill="#3A2E2E"/>
<path d="M350 3.99179V43.3774H339.62V3.99179H350Z" fill="#3A2E2E"/>
<path d="M149.464 8.86823C153.777 8.86823 157.239 9.96462 159.85 12.1574C162.461 14.3502 163.767 17.4827 163.767 21.555C163.767 25.1183 162.56 27.9376 160.147 30.0129C157.773 32.0882 154.627 33.165 150.711 33.2433L150.414 37.531H140.147L139.791 25.8427H144.064C146.754 25.8427 148.811 25.549 150.236 24.9617C151.66 24.3352 152.372 23.2388 152.372 21.6725C152.372 20.6153 152.076 19.793 151.482 19.2056C150.928 18.5791 150.157 18.2659 149.167 18.2659C148.06 18.2659 147.209 18.5987 146.616 19.2644C146.062 19.8909 145.785 20.7523 145.785 21.8487H134.805C134.726 19.4601 135.221 17.2869 136.289 15.3291C137.397 13.3321 139.059 11.7658 141.274 10.6303C143.49 9.45558 146.22 8.86823 149.464 8.86823ZM145.369 53.8007C143.312 53.8007 141.65 53.2525 140.384 52.1561C139.158 51.0205 138.544 49.5913 138.544 47.8684C138.544 46.1455 139.158 44.7163 140.384 43.5807C141.65 42.4452 143.312 41.8774 145.369 41.8774C147.387 41.8774 149.009 42.4452 150.236 43.5807C151.502 44.7163 152.135 46.1455 152.135 47.8684C152.135 49.5521 151.502 50.9618 150.236 52.0973C149.009 53.2329 147.387 53.8007 145.369 53.8007Z" fill="#3A2E2E"/>
</svg>
